<svg width="113" height="47" viewBox="0 0 113 47" fill="none" xmlns="http://www.w3.org/2000/svg">
<path d="M20.3598 6.38528V12.5056H26.4785V6.40316L31.2903 13.7703L36.4011 10.433L31.287 2.60256C30.2271 0.9786 28.4179 0 26.4785 0H26.4671H20.3598C18.4123 0 16.5965 0.983477 15.5318 2.61393L10.4258 10.4346L15.5366 13.7719L20.3598 6.38528Z" fill="white"/>
<path d="M44.2089 15.5278L36.3881 10.4219L33.0508 15.5327L40.4359 20.3558H34.3171V26.4745H40.4196L33.0524 31.2862L36.3898 36.397L44.2202 31.283C45.8442 30.2231 46.8228 28.4138 46.8228 26.4745V26.4631V20.3558C46.8228 18.4084 45.8393 16.5926 44.2089 15.5278Z" fill="white"/>
<path d="M26.4785 40.4179V34.3155H20.3598V40.4358L15.5366 33.0508L10.4258 36.3881L15.5318 44.2088C16.5965 45.8392 18.4123 46.8227 20.3598 46.8227H26.4671H26.4785C28.4179 46.8227 30.2271 45.8441 31.287 44.2201L36.4011 36.3897L31.2903 33.0524L26.4785 40.4179Z" fill="white"/>
<path d="M6.40484 26.4742H12.5073V20.3555H6.38696L13.772 15.5324L10.4347 10.4199L2.61396 15.5259C0.983485 16.5906 0 18.4064 0 20.3538V26.4612V26.4725C0 28.4118 0.978609 30.2211 2.60258 31.281L10.4347 36.3951L13.772 31.2843L6.40484 26.4742Z" fill="white"/>
<path d="M70.6197 10.4147L76.25 9.76562V36.0739H70.6197V25.115H58.6303V36.0739H53V10.4147L58.6303 9.76562V20.5713H70.6197V10.4147Z" fill="white"/>
<path d="M87.7397 36.0739H82.1094V10.4147L87.7397 9.76562V36.0739Z" fill="white"/>
<path d="M92.3359 29.4704C93.6128 30.2601 95.0751 30.8649 96.7211 31.2835C98.3687 31.7036 99.8943 31.9136 101.298 31.9136C104.693 31.9136 106.393 30.9471 106.393 29.0108C106.393 28.3996 106.138 27.8595 105.628 27.3873C105.116 26.9166 104.46 26.5281 103.655 26.2233C102.85 25.9185 101.951 25.6121 100.956 25.3073C99.9592 25.0025 98.9707 24.6329 97.9869 24.2002C97.0031 23.7675 96.1096 23.2716 95.3064 22.7109C94.5016 22.1518 93.8441 21.3938 93.334 20.4398C92.8223 19.4859 92.5672 18.3851 92.5672 17.1375C92.5672 14.6437 93.4544 12.7849 95.2287 11.5625C97.003 10.3401 99.2431 9.73047 101.951 9.73047C105.014 9.73047 108.207 10.4048 111.526 11.7536L110.913 16.6795C107.975 15.0765 105.244 14.2742 102.716 14.2742C101.311 14.2742 100.219 14.4526 99.4412 14.808C98.6617 15.1649 98.2736 15.8519 98.2736 16.8706C98.2736 17.6602 98.752 18.322 99.7105 18.8558C100.667 19.3896 101.824 19.8555 103.177 20.2503C104.53 20.6452 105.883 21.1158 107.237 21.6638C108.59 22.2118 109.747 23.0584 110.703 24.2034C111.66 25.3484 112.14 26.7745 112.14 28.4802C112.14 31.2045 111.169 33.215 109.229 34.5132C107.288 35.8114 104.9 36.4605 102.066 36.4605C98.4399 36.4605 95.197 35.7861 92.3375 34.4374V29.4704H92.3359Z" fill="white"/>
</svg>
