<svg width="134" height="47" viewBox="0 0 134 47" fill="none" xmlns="http://www.w3.org/2000/svg">
<path d="M20.3598 6.38528V12.5056H26.4785V6.40316L31.2903 13.7703L36.4011 10.433L31.287 2.60256C30.2271 0.9786 28.4179 0 26.4785 0H26.4671H20.3598C18.4123 0 16.5965 0.983477 15.5318 2.61393L10.4258 10.4346L15.5366 13.7719L20.3598 6.38528Z" fill="white"/>
<path d="M44.2089 15.5278L36.3881 10.4219L33.0508 15.5327L40.4359 20.3558H34.3171V26.4745H40.4196L33.0524 31.2862L36.3898 36.397L44.2202 31.283C45.8442 30.2231 46.8228 28.4138 46.8228 26.4745V26.4631V20.3558C46.8228 18.4084 45.8393 16.5926 44.2089 15.5278Z" fill="white"/>
<path d="M26.4785 40.4179V34.3155H20.3598V40.4358L15.5366 33.0508L10.4258 36.3881L15.5318 44.2088C16.5965 45.8392 18.4123 46.8227 20.3598 46.8227H26.4671H26.4785C28.4179 46.8227 30.2271 45.8441 31.287 44.2201L36.4011 36.3897L31.2903 33.0524L26.4785 40.4179Z" fill="white"/>
<path d="M6.40484 26.4742H12.5073V20.3555H6.38696L13.772 15.5324L10.4347 10.4199L2.61396 15.5259C0.983485 16.5906 0 18.4064 0 20.3538V26.4612V26.4725C0 28.4118 0.978609 30.2211 2.60258 31.281L10.4347 36.3951L13.772 31.2843L6.40484 26.4742Z" fill="white"/>
<path d="M133.518 34.3331C130.896 35.6823 128.007 36.357 124.85 36.357C120.752 36.357 117.442 35.1477 114.922 32.7293C112.427 30.2854 111.18 27.0396 111.18 22.992C111.18 18.9188 112.44 15.673 114.96 13.2546C117.506 10.8362 120.892 9.62695 125.117 9.62695C128.376 9.62695 131.265 10.3016 133.786 11.6508L132.907 16.5386C130.438 14.9602 127.905 14.1711 125.308 14.1711C122.737 14.1711 120.688 14.9475 119.161 16.5004C117.659 18.0278 116.908 20.1917 116.908 22.992C116.908 25.7668 117.646 27.9306 119.122 29.4835C120.624 31.0364 122.61 31.8129 125.079 31.8129C128.287 31.8129 131.1 30.9982 133.518 29.369V34.3331Z" fill="white"/>
<path d="M98.4614 10.0098C101.694 10.0098 104.215 10.7989 106.022 12.3773C107.83 13.9556 108.733 16.0686 108.733 18.7161C108.733 21.3637 107.83 23.4893 106.022 25.0931C104.215 26.6715 101.694 27.4606 98.4614 27.4606H92.6953V35.976H87.082V10.0098H98.4614ZM98.1941 22.9165C99.6706 22.9165 100.842 22.5474 101.707 21.8092C102.573 21.0454 103.005 20.0144 103.005 18.7161C103.005 17.4178 102.56 16.3995 101.669 15.6613C100.803 14.923 99.6451 14.5539 98.1941 14.5539H92.6953V22.9165H98.1941Z" fill="white"/>
<path d="M68.3888 30.3627H65.2194L58.0787 19.5562V35.976H53V10.0098H58.4987L67.1669 23.1838L75.7969 10.0098H81.2574V35.6324L75.6823 36.3197V19.5562L68.3888 30.3627Z" fill="white"/>
</svg>
