<svg width="134" height="47" viewBox="0 0 134 47" fill="none" xmlns="http://www.w3.org/2000/svg">
<g clip-path="url(#clip0_294_112)">
<mask id="mask0_294_112" style="mask-type:luminance" maskUnits="userSpaceOnUse" x="0" y="0" width="134" height="47">
<path d="M134 0H0V47H134V0Z" fill="white"/>
</mask>
<g mask="url(#mask0_294_112)">
<path d="M19.4614 7.97028V13.8772H25.3109V7.98754L29.9107 15.0978L34.7967 11.8769L29.9076 4.31944C28.8945 2.7521 27.1648 1.80762 25.3109 1.80762H25.3H19.4614C17.5998 1.80762 15.8639 2.7568 14.846 4.33041L9.96484 11.8784L14.8507 15.0994L19.4614 7.97028Z" fill="white"/>
<path d="M42.2597 16.7951L34.7832 11.8672L31.5928 16.7998L38.6528 21.4548H32.8035V27.3602H38.6372L31.5944 32.0041L34.7849 36.9366L42.2704 32.0009C43.823 30.9781 44.7585 29.2318 44.7585 27.3602V27.3491V21.4548C44.7585 19.5753 43.8183 17.8227 42.2597 16.7951Z" fill="white"/>
<path d="M25.3109 40.8172V34.9276H19.4614V40.8346L14.8507 33.707L9.96484 36.928L14.846 44.4758C15.8639 46.0494 17.5998 46.9986 19.4614 46.9986H25.3H25.3109C27.1648 46.9986 28.8945 46.0543 29.9076 44.4868L34.7967 36.9296L29.9107 33.7085L25.3109 40.8172Z" fill="white"/>
<path d="M6.12286 27.3582H11.9567V21.4528H6.10575L13.1657 16.798L9.97527 11.8638L2.49886 16.7917C0.940184 17.8194 0 19.5718 0 21.4514V27.3457V27.3568C0 29.2283 0.935523 30.9745 2.48798 31.9976L9.97527 36.9334L13.1657 32.0007L6.12286 27.3582Z" fill="white"/>
<path d="M74.7963 33.2372C72.4806 35.6234 69.2934 36.8165 65.2349 36.8165C61.1765 36.8165 57.9773 35.6234 55.6377 33.2372C53.3219 30.8271 52.1641 27.8021 52.1641 24.1626C52.1641 20.5473 53.3219 17.5344 55.6377 15.1242C57.9773 12.7139 61.1765 11.5088 65.2349 11.5088C69.2934 11.5088 72.4806 12.7139 74.7963 15.1242C77.1361 17.5344 78.3058 20.5473 78.3058 24.1626C78.3058 27.8021 77.1361 30.8271 74.7963 33.2372ZM70.8931 18.1249C69.5562 16.5824 67.67 15.8111 65.2349 15.8111C62.7999 15.8111 60.902 16.5824 59.5411 18.1249C58.2042 19.6434 57.5357 21.6559 57.5357 24.1626C57.5357 26.6694 58.2042 28.694 59.5411 30.2365C60.902 31.7549 62.7999 32.5142 65.2349 32.5142C67.67 32.5142 69.5562 31.7549 70.8931 30.2365C72.2537 28.694 72.9342 26.6694 72.9342 24.1626C72.9342 21.6559 72.2537 19.6434 70.8931 18.1249ZM87.8519 36.4549V16.1726H80.1884V11.8703H100.744L100.135 16.1726H93.0802V36.4549H87.8519ZM103.917 36.4549V11.8703H113.156C117.215 11.8703 120.414 13.0273 122.753 15.3411C125.093 17.6549 126.263 20.5955 126.263 24.1626C126.263 27.754 125.093 30.7065 122.753 33.0203C120.414 35.3101 117.215 36.4549 113.156 36.4549H103.917ZM113.156 32.1526C115.567 32.1526 117.453 31.4417 118.814 30.0196C120.199 28.5734 120.891 26.6211 120.891 24.1626C120.891 21.7042 120.199 19.764 118.814 18.3419C117.453 16.8957 115.567 16.1726 113.156 16.1726H109.181V32.1526H113.156Z" fill="white"/>
</g>
</g>
<defs>
<clipPath id="clip0_294_112">
<rect width="134" height="47" fill="white"/>
</clipPath>
</defs>
</svg>
