<svg width="135" height="47" viewBox="0 0 135 47" fill="none" xmlns="http://www.w3.org/2000/svg">
<path d="M20.3598 6.38528V12.5056H26.4785V6.40316L31.2903 13.7703L36.4011 10.433L31.287 2.60256C30.2271 0.9786 28.4179 0 26.4785 0H26.4671H20.3598C18.4123 0 16.5965 0.983477 15.5318 2.61393L10.4258 10.4346L15.5366 13.7719L20.3598 6.38528Z" fill="white"/>
<path d="M44.2089 15.5278L36.3881 10.4219L33.0508 15.5327L40.4359 20.3558H34.3171V26.4745H40.4196L33.0524 31.2862L36.3898 36.397L44.2202 31.283C45.8442 30.2231 46.8228 28.4138 46.8228 26.4745V26.4631V20.3558C46.8228 18.4084 45.8393 16.5926 44.2089 15.5278Z" fill="white"/>
<path d="M26.4785 40.4179V34.3155H20.3598V40.4358L15.5366 33.0508L10.4258 36.3881L15.5318 44.2088C16.5965 45.8392 18.4123 46.8227 20.3598 46.8227H26.4671H26.4785C28.4179 46.8227 30.2271 45.8441 31.287 44.2201L36.4011 36.3897L31.2903 33.0524L26.4785 40.4179Z" fill="white"/>
<path d="M6.40484 26.4742H12.5073V20.3555H6.38696L13.772 15.5324L10.4347 10.4199L2.61396 15.5259C0.983485 16.5906 0 18.4064 0 20.3538V26.4612V26.4725C0 28.4118 0.978609 30.2211 2.60258 31.281L10.4347 36.3951L13.772 31.2843L6.40484 26.4742Z" fill="white"/>
<path d="M64.5615 9.62695C67.8446 9.62695 70.4056 10.4293 72.2429 12.0323C74.0786 13.6369 74.9965 15.7823 74.9965 18.4733C74.9965 21.1643 74.0786 23.3161 72.2429 24.932C70.4056 26.5478 67.8446 27.3566 64.5615 27.3566H58.7029V36.0071H53V9.62695H64.5615ZM64.2887 22.74C65.789 22.74 66.9797 22.3581 67.859 21.5959C68.7384 20.8321 69.178 19.7923 69.178 18.4733C69.178 17.1543 68.732 16.1193 67.8398 15.3683C66.9476 14.619 65.765 14.2435 64.2903 14.2435H58.7045V22.74H64.2887Z" fill="white"/>
<path d="M90.2038 9.62695C96.8759 9.62695 100.214 12.0195 100.214 16.8029C100.214 19.6222 98.9331 21.4595 96.3721 22.3116C97.9238 22.6486 99.0807 23.3787 99.8445 24.5035C100.607 25.6284 100.989 26.941 100.989 28.4413C100.989 31.0536 100.173 32.968 98.5448 34.1827C96.9161 35.399 94.4449 36.0055 91.1345 36.0055H78.875V9.62695H90.2038ZM90.0867 20.3732C91.5597 20.3732 92.6525 20.1469 93.365 19.6944C94.0758 19.2435 94.4321 18.4605 94.4321 17.3468C94.4321 16.2605 94.0694 15.4726 93.3457 14.98C92.622 14.489 91.5357 14.2435 90.0867 14.2435H84.5779V20.3732H90.0867ZM84.5779 24.7571V31.3906H90.9789C93.7982 31.3906 95.2071 30.2914 95.2071 28.0931C95.2071 25.8691 93.7966 24.7571 90.9789 24.7571H84.5779Z" fill="white"/>
<path d="M121.163 30.3043H117.942L110.688 19.3254V36.0071H105.527V9.62695H111.113L119.921 23.0112L128.689 9.62695H134.236V35.6589L128.572 36.357V19.3254L121.163 30.3043Z" fill="white"/>
</svg>
