<svg width="203" height="49" viewBox="0 0 203 49" fill="none" xmlns="http://www.w3.org/2000/svg">
<path d="M21.1815 6.64371V13.0117H27.5479V6.66232L32.5544 14.3276L37.8721 10.8552L32.551 2.70789C31.4482 1.01821 29.5657 0 27.5479 0H27.5361H21.1815C19.1552 0 17.266 1.02328 16.1581 2.71973L10.8455 10.8569L16.1632 14.3293L21.1815 6.64371Z" fill="white"/>
<path d="M45.9952 16.1572L37.8579 10.8446L34.3855 16.1623L42.0695 21.1806H35.7031V27.5469H42.0526L34.3872 32.5534L37.8596 37.871L46.007 32.55C47.6967 31.4472 48.7149 29.5647 48.7149 27.5469V27.5351V21.1806C48.7149 19.1543 47.6916 17.2651 45.9952 16.1572Z" fill="white"/>
<path d="M27.5479 42.0547V35.7053H21.1815V42.0733L16.1632 34.3894L10.8455 37.8618L16.1581 45.999C17.266 47.6954 19.1552 48.7187 21.1815 48.7187H27.5361H27.5479C29.5657 48.7187 31.4482 47.7005 32.551 46.0108L37.8721 37.8635L32.5544 34.3911L27.5479 42.0547Z" fill="white"/>
<path d="M6.66406 27.5454H13.0135V21.1791H6.64546L14.3294 16.1608L10.857 10.8414L2.71975 16.154C1.02329 17.2619 0 19.1511 0 21.1774V27.5319V27.5437C0 29.5615 1.01822 31.444 2.70791 32.5468L10.857 37.8679L14.3294 32.5502L6.66406 27.5454Z" fill="white"/>
<path d="M94.5818 9.74424L86.7866 36.4428H80.2387L75.0548 18.8646L70.0659 36.4428H63.7908L55.8397 10.056L61.2963 9.39346L67.1817 29.8948L72.5604 9.74424H77.8221L83.4737 29.8948L89.0862 9.74424H94.5818ZM115.253 36.6377L108.549 26.6598H103.949V36.2479H98.22V9.74424H109.952C116.578 9.74424 119.891 12.5505 119.891 18.1631C119.891 20.0859 119.384 21.7099 118.371 23.0351C117.383 24.3343 116.006 25.2567 114.239 25.8024L121.177 35.9751L115.253 36.6377ZM103.949 22.0217H109.406C112.472 22.0217 114.005 20.7355 114.005 18.1631C114.005 15.6426 112.472 14.3824 109.406 14.3824H103.949V22.0217ZM146.3 34.572C143.623 35.9491 140.674 36.6377 137.452 36.6377C133.269 36.6377 129.891 35.4034 127.318 32.935C124.772 30.4405 123.499 27.1275 123.499 22.9961C123.499 18.8386 124.785 15.5257 127.357 13.0572C129.956 10.5887 133.412 9.35448 137.725 9.35448C141.051 9.35448 144 10.0431 146.572 11.4202L145.676 16.4091C143.156 14.7981 140.57 13.9926 137.92 13.9926C135.295 13.9926 133.204 14.7851 131.645 16.3702C130.112 17.9292 129.345 20.1378 129.345 22.9961C129.345 25.8283 130.099 28.037 131.606 29.622C133.139 31.207 135.165 31.9995 137.686 31.9995C140.96 31.9995 143.831 31.1681 146.3 29.5051V34.572ZM166.796 30.5185H163.561L156.273 19.4882V36.2479H151.089V9.74424H156.701L165.549 23.191L174.357 9.74424H179.931V35.8971L174.241 36.5987V19.4882L166.796 30.5185Z" fill="white"/>
</svg>
